<svg width="66" height="66" viewBox="0 0 66 66" fill="none" xmlns="http://www.w3.org/2000/svg">
<g clip-path="url(#clip0_969_235)">
<path d="M50.5312 0H15.4688C6.9256 0 0 6.9256 0 15.4688V50.5312C0 59.0744 6.9256 66 15.4688 66H50.5312C59.0744 66 66 59.0744 66 50.5312V15.4688C66 6.9256 59.0744 0 50.5312 0Z" fill="url(#paint0_radial_969_235)" fill-opacity="0.6"/>
<path d="M50.5312 0H15.4688C6.9256 0 0 6.9256 0 15.4688V50.5312C0 59.0744 6.9256 66 15.4688 66H50.5312C59.0744 66 66 59.0744 66 50.5312V15.4688C66 6.9256 59.0744 0 50.5312 0Z" fill="url(#paint1_radial_969_235)" fill-opacity="0.6"/>
<path d="M33.0023 7.21875C26.0006 7.21875 25.1218 7.24943 22.3719 7.37447C19.6273 7.50028 17.7537 7.9347 16.1146 8.57227C14.4187 9.23072 12.9803 10.1117 11.5474 11.5451C10.1132 12.9783 9.23227 14.4166 8.57175 16.1117C7.93238 17.7514 7.49745 19.6257 7.37395 22.3691C7.25098 25.1192 7.21875 25.9983 7.21875 33.0003C7.21875 40.0022 7.24969 40.8782 7.37447 43.6281C7.5008 46.3727 7.93521 48.2463 8.57227 49.8854C9.23123 51.5813 10.1122 53.0197 11.5456 54.4526C12.9783 55.8868 14.4166 56.7698 16.1112 57.4283C17.7517 58.0658 19.6255 58.5002 22.3696 58.6261C25.1197 58.7511 25.9978 58.7818 32.9992 58.7818C40.0017 58.7818 40.8777 58.7511 43.6275 58.6261C46.3722 58.5002 48.2478 58.0658 49.8883 57.4283C51.5834 56.7698 53.0197 55.8868 54.4521 54.4526C55.8863 53.0197 56.767 51.5813 57.4277 49.8862C58.0614 48.2463 58.4966 46.3722 58.6255 43.6286C58.749 40.8788 58.7812 40.0022 58.7812 33.0003C58.7812 25.9983 58.749 25.1197 58.6255 22.3696C58.4966 19.6249 58.0614 17.7517 57.4277 16.1125C56.767 14.4166 55.8863 12.9783 54.4521 11.5451C53.0181 10.1111 51.5839 9.2302 49.8867 8.57252C48.2432 7.9347 46.3686 7.50002 43.6239 7.37447C40.8738 7.24943 39.9983 7.21875 32.9943 7.21875H33.0023ZM30.6895 11.8648C31.376 11.8638 32.142 11.8648 33.0023 11.8648C39.8862 11.8648 40.7019 11.8895 43.4203 12.013C45.9339 12.128 47.2983 12.548 48.2071 12.9009C49.4103 13.3681 50.268 13.9268 51.1699 14.8294C52.0722 15.7317 52.6306 16.591 53.0991 17.7942C53.452 18.7017 53.8725 20.0661 53.987 22.5797C54.1105 25.2976 54.1373 26.1138 54.1373 32.9943C54.1373 39.8748 54.1105 40.6913 53.987 43.4089C53.872 45.9226 53.452 47.2869 53.0991 48.1947C52.6319 49.3979 52.0722 50.2546 51.1699 51.1565C50.2675 52.0588 49.4108 52.6172 48.2071 53.0846C47.2993 53.4391 45.9339 53.8581 43.4203 53.9731C40.7024 54.0965 39.8862 54.1234 33.0023 54.1234C26.1182 54.1234 25.3022 54.0965 22.5846 53.9731C20.071 53.857 18.7066 53.4371 17.7971 53.0841C16.5941 52.6167 15.7346 52.0583 14.8322 51.1559C13.9299 50.2536 13.3714 49.3964 12.903 48.1926C12.5501 47.2849 12.1296 45.9205 12.0151 43.4069C11.8916 40.689 11.8669 39.8728 11.8669 32.9879C11.8669 26.103 11.8916 25.2912 12.0151 22.5733C12.1301 20.0596 12.5501 18.6953 12.903 17.7865C13.3704 16.5833 13.9299 15.724 14.8325 14.8216C15.7351 13.9193 16.5941 13.3606 17.7973 12.8924C18.7061 12.5379 20.071 12.119 22.5846 12.0035C24.963 11.896 25.8846 11.8638 30.6895 11.8583V11.8648ZM46.7644 16.1455C45.0563 16.1455 43.6706 17.53 43.6706 19.2382C43.6706 20.9462 45.0563 22.332 46.7644 22.332C48.4724 22.332 49.8581 20.9462 49.8581 19.2382C49.8581 17.5302 48.4724 16.1445 46.7644 16.1445V16.1455ZM33.0023 19.7603C25.6908 19.7603 19.7626 25.6884 19.7626 33.0003C19.7626 40.3121 25.6908 46.2374 33.0023 46.2374C40.3141 46.2374 46.2402 40.3121 46.2402 33.0003C46.2402 25.6887 40.3136 19.7603 33.0018 19.7603H33.0023ZM33.0023 24.4063C37.7484 24.4063 41.5962 28.2537 41.5962 33.0003C41.5962 37.7463 37.7484 41.5942 33.0023 41.5942C28.2563 41.5942 24.4087 37.7463 24.4087 33.0003C24.4087 28.2537 28.256 24.4063 33.0023 24.4063Z" fill="white" fill-opacity="0.6"/>
</g>
<defs>
<radialGradient id="paint0_radial_969_235" cx="0" cy="0" r="1" gradientUnits="userSpaceOnUse" gradientTransform="translate(17.5312 71.0833) rotate(-90) scale(65.4109 60.8373)">
<stop stop-color="#FFDD55"/>
<stop offset="0.1" stop-color="#FFDD55"/>
<stop offset="0.5" stop-color="#FF543E"/>
<stop offset="1" stop-color="#C837AB"/>
</radialGradient>
<radialGradient id="paint1_radial_969_235" cx="0" cy="0" r="1" gradientUnits="userSpaceOnUse" gradientTransform="translate(-11.0552 4.75447) rotate(78.68) scale(29.239 120.524)">
<stop stop-color="#3771C8"/>
<stop offset="0.128" stop-color="#3771C8"/>
<stop offset="1" stop-color="#6600FF" stop-opacity="0"/>
</radialGradient>
<clipPath id="clip0_969_235">
<rect width="66" height="66" fill="white"/>
</clipPath>
</defs>
</svg>
