<svg width="66" height="66" viewBox="0 0 66 66" fill="none" xmlns="http://www.w3.org/2000/svg">
<g clip-path="url(#clip0_969_240)">
<path d="M33 0C24.2498 0 15.8503 3.47892 9.66797 9.66539C3.47929 15.8543 0.00177091 24.2477 0 33C0 41.7486 3.48047 50.1481 9.66797 56.3346C15.8503 62.5211 24.2498 66 33 66C41.7502 66 50.1497 62.5211 56.332 56.3346C62.5195 50.1481 66 41.7486 66 33C66 24.2514 62.5195 15.8519 56.332 9.66539C50.1497 3.47892 41.7502 0 33 0Z" fill="url(#paint0_linear_969_240)" fill-opacity="0.6"/>
<path d="M14.9378 32.6511C24.5594 28.4601 30.9738 25.6971 34.1809 24.3619C43.3488 20.5499 45.2514 19.8879 46.4941 19.8654C46.7673 19.861 47.3758 19.9286 47.7728 20.2496C48.1028 20.5203 48.1956 20.8864 48.242 21.1434C48.2833 21.4002 48.34 21.9854 48.2936 22.4423C47.7986 27.6604 45.6484 40.3231 44.5553 46.1677C44.0964 48.6407 43.1838 49.4698 42.302 49.5507C40.3839 49.7271 38.9298 48.2844 37.0736 47.068C34.1706 45.1638 32.5309 43.9789 29.7105 42.1211C26.4517 39.974 28.5658 38.7938 30.422 36.8653C30.9067 36.3605 39.3527 28.6803 39.5125 27.9837C39.5331 27.8965 39.5538 27.5717 39.3578 27.4005C39.167 27.2288 38.8834 27.2876 38.6772 27.334C38.3833 27.4 33.7478 30.4669 24.7553 36.5343C23.4405 37.4387 22.2494 37.8796 21.1769 37.8564C20.0013 37.8311 17.7325 37.1902 16.0464 36.6426C13.9839 35.9707 12.3391 35.6155 12.4834 34.4744C12.5556 33.8804 13.3755 33.2725 14.9378 32.6511Z" fill="white" fill-opacity="0.6"/>
</g>
<defs>
<linearGradient id="paint0_linear_969_240" x1="33" y1="0" x2="33" y2="66" gradientUnits="userSpaceOnUse">
<stop stop-color="#2AABEE"/>
<stop offset="1" stop-color="#229ED9"/>
</linearGradient>
<clipPath id="clip0_969_240">
<rect width="66" height="66" fill="white"/>
</clipPath>
</defs>
</svg>
