<svg width="65" height="66" viewBox="0 0 65 66" fill="none" xmlns="http://www.w3.org/2000/svg">
<g clip-path="url(#clip0_969_243)">
<path d="M1.38701 32.6048C1.38549 38.1501 2.82361 43.5647 5.55818 48.3371L1.12549 64.6432L17.6883 60.2678C22.2694 62.7803 27.4021 64.0969 32.618 64.0973H32.6317C49.8504 64.0973 63.8667 49.9807 63.8741 32.6296C63.8774 24.2218 60.6305 16.3156 54.7312 10.3674C48.833 4.41974 40.9885 1.14251 32.6304 1.13867C15.4097 1.13867 1.39438 15.2545 1.38727 32.6048" fill="url(#paint0_linear_969_243)" fill-opacity="0.6"/>
<path d="M0.27168 32.5948C0.269902 38.3396 1.75957 43.9478 4.59164 48.8912L0 65.7818L17.1567 61.2495C21.8839 63.8463 27.2063 65.2154 32.6221 65.2175H32.6361C50.4725 65.2175 64.9924 50.5931 65 32.6209C65.003 23.9109 61.6393 15.7205 55.5293 9.55926C49.4185 3.39874 41.2935 0.0035814 32.6361 0C14.7966 0 0.278789 14.6223 0.27168 32.5948ZM10.4891 48.0398L9.84852 47.0153C7.15559 42.7012 5.73422 37.7159 5.73625 32.5968C5.74184 17.6586 17.8085 5.50512 32.6463 5.50512C39.8318 5.50819 46.5847 8.33033 51.6638 13.4507C56.7427 18.5716 59.5375 25.3788 59.5357 32.6188C59.5291 47.5571 47.4622 59.7121 32.6361 59.7121H32.6254C27.7979 59.7095 23.0633 58.4034 18.9343 55.935L17.9517 55.3479L7.77055 58.0373L10.4891 48.0398Z" fill="url(#paint1_linear_969_243)" fill-opacity="0.6"/>
<path d="M24.547 18.9677C23.9412 17.6111 23.3036 17.5838 22.7275 17.56C22.2557 17.5395 21.7164 17.541 21.1776 17.541C20.6383 17.541 19.7621 17.7454 19.0215 18.5602C18.2801 19.3757 16.1909 21.3465 16.1909 25.3549C16.1909 29.3632 19.0888 33.2373 19.4927 33.7814C19.8972 34.3245 25.087 42.8134 33.3065 46.0791C40.1376 48.7931 41.5277 48.2533 43.0103 48.1172C44.4931 47.9816 47.7949 46.1469 48.4685 44.2444C49.1426 42.3422 49.1426 40.7116 48.9405 40.3709C48.7384 40.0314 48.1991 39.8276 47.3904 39.4203C46.5817 39.013 42.6058 37.0417 41.8646 36.7698C41.1232 36.4981 40.5842 36.3626 40.0449 37.1783C39.5056 37.9929 37.957 39.8276 37.485 40.3709C37.0135 40.9155 36.5415 40.9833 35.7331 40.5758C34.9239 40.167 32.3196 39.3077 29.2298 36.5324C26.8258 34.3728 25.2028 31.706 24.7311 30.8902C24.2593 30.0757 24.6805 29.6341 25.086 29.2282C25.4494 28.8631 25.895 28.2768 26.2997 27.8012C26.7029 27.3254 26.8375 26.9859 27.1071 26.4426C27.377 25.8987 27.2419 25.4229 27.0401 25.0154C26.8375 24.6079 25.266 20.5786 24.547 18.9677Z" fill="white" fill-opacity="0.6"/>
</g>
<defs>
<linearGradient id="paint0_linear_969_243" x1="32.4998" y1="64.6432" x2="32.4998" y2="1.13867" gradientUnits="userSpaceOnUse">
<stop stop-color="#1FAF38"/>
<stop offset="1" stop-color="#60D669"/>
</linearGradient>
<linearGradient id="paint1_linear_969_243" x1="32.5" y1="65.7818" x2="32.5" y2="0" gradientUnits="userSpaceOnUse">
<stop stop-color="#F9F9F9"/>
<stop offset="1" stop-color="white"/>
</linearGradient>
<clipPath id="clip0_969_243">
<rect width="65" height="66" fill="white"/>
</clipPath>
</defs>
</svg>
