<svg width="80" height="56" viewBox="0 0 80 56" fill="none" xmlns="http://www.w3.org/2000/svg">
<g clip-path="url(#clip0_969_247)">
<path d="M78.2124 8.76928C77.7478 7.07432 76.8415 5.52908 75.5838 4.28743C74.3261 3.04578 72.7608 2.15105 71.0438 1.69232C64.758 0 39.4596 0 39.4596 0C39.4596 0 14.16 0.0512256 7.87414 1.74355C6.15713 2.2023 4.59182 3.09708 3.33409 4.33879C2.07635 5.58049 1.17008 7.1258 0.705519 8.82082C-1.1958 19.8462 -1.93335 36.6464 0.757727 47.2307C1.22234 48.9257 2.12863 50.4709 3.38636 51.7126C4.64409 52.9542 6.20938 53.849 7.92635 54.3077C14.2122 56 39.5112 56 39.5112 56C39.5112 56 64.8099 56 71.0954 54.3077C72.8124 53.849 74.3778 52.9543 75.6356 51.7126C76.8933 50.471 77.7997 48.9257 78.2643 47.2307C80.2697 36.1897 80.8877 19.3999 78.2124 8.76928Z" fill="#FF0000" fill-opacity="0.6"/>
<path d="M32.0063 39.8411L52.7338 27.8888L32.0063 15.9365V39.8411Z" fill="white" fill-opacity="0.6"/>
</g>
<defs>
<clipPath id="clip0_969_247">
<rect width="80" height="56" fill="white"/>
</clipPath>
</defs>
</svg>
