<svg width="26" height="26" viewBox="0 0 26 26" fill="none" xmlns="http://www.w3.org/2000/svg">
<path d="M6.93312 5.15713C8.54764 3.57491 10.7213 2.69377 12.9818 2.70519C15.2424 2.7166 17.407 3.61966 19.0055 5.2181C20.6039 6.81655 21.507 8.98123 21.5184 11.2417C21.5298 13.5023 20.6487 15.676 19.0665 17.2905L14.5316 21.8253C14.1253 22.2315 13.5743 22.4597 12.9998 22.4597C12.4253 22.4597 11.8743 22.2315 11.468 21.8253L6.93312 17.2905C5.32425 15.6814 4.42041 13.4992 4.42041 11.2238C4.42041 8.94839 5.32425 6.76617 6.93312 5.15713Z" stroke="white" stroke-opacity="0.7" stroke-width="1.5" stroke-linejoin="round"/>
<path d="M13 14.4736C14.7949 14.4736 16.25 13.0186 16.25 11.2236C16.25 9.42871 14.7949 7.97363 13 7.97363C11.2051 7.97363 9.75 9.42871 9.75 11.2236C9.75 13.0186 11.2051 14.4736 13 14.4736Z" stroke="white" stroke-opacity="0.7" stroke-width="1.5" stroke-linecap="round" stroke-linejoin="round"/>
</svg>
