<svg width="26" height="26" viewBox="0 0 26 26" fill="none" xmlns="http://www.w3.org/2000/svg">
<path d="M18.0147 15.049L18.5087 14.5582L17.3615 13.4056L16.8696 13.8963L18.0147 15.049ZM20.1651 14.3524L22.2354 15.478L23.01 14.0501L20.9408 12.9256L20.1651 14.3524ZM22.633 17.714L21.0946 19.2447L22.2397 20.3963L23.7781 18.8666L22.633 17.714ZM20.1565 19.7366C18.5856 19.8839 14.5231 19.7528 10.1226 15.3783L8.97647 16.5299C13.7778 21.3041 18.3484 21.5381 20.3081 21.3551L20.1565 19.7366ZM10.1226 15.3783C5.92905 11.2075 5.23355 7.70072 5.14689 6.17864L3.52405 6.27072C3.63239 8.18605 4.49364 12.0731 8.97647 16.5299L10.1226 15.3783ZM11.6122 8.6833L11.9231 8.37347L10.7791 7.22189L10.4682 7.53064L11.6122 8.6833ZM12.1701 4.43555L10.8051 2.61122L9.50405 3.58622L10.8691 5.40947L12.1701 4.43555ZM6.21072 2.21364L4.50989 3.90364L5.65605 5.0563L7.3558 3.3663L6.21072 2.21364ZM11.0402 8.10697C10.4661 7.53063 10.4661 7.53064 10.4661 7.5328H10.4639L10.4606 7.53714C10.4092 7.58904 10.3631 7.64603 10.3231 7.70722C10.2646 7.79389 10.2006 7.90764 10.1465 8.05172C10.0146 8.42366 9.98175 8.8235 10.0511 9.21197C10.1963 10.1491 10.842 11.3873 12.4951 13.0318L13.6413 11.8791C12.0932 10.3408 11.7249 9.4048 11.6566 8.9628C11.6241 8.75264 11.6577 8.64864 11.6675 8.6248C11.674 8.61036 11.674 8.60819 11.6675 8.6183C11.6578 8.63325 11.6469 8.64738 11.635 8.66055L11.6241 8.67139L11.6133 8.68114L11.0402 8.10697ZM12.4951 13.0318C14.1494 14.6763 15.3941 15.3176 16.3323 15.4606C16.8122 15.5343 17.199 15.4758 17.4926 15.3664C17.657 15.3062 17.8107 15.2199 17.9476 15.1107L18.0017 15.062L18.0093 15.0555L18.0126 15.0522L18.0136 15.0501C18.0136 15.0501 18.0147 15.049 17.4416 14.4726C16.8675 13.8963 16.8707 13.8952 16.8707 13.8952L16.8729 13.8931L16.8751 13.8909L16.8816 13.8855L16.8924 13.8746L16.9336 13.8421C16.9437 13.8356 16.9411 13.8364 16.926 13.8443C16.8989 13.8541 16.7927 13.8876 16.5793 13.8551C16.1308 13.7858 15.1883 13.4175 13.6413 11.8791L12.4951 13.0318ZM10.8051 2.61014C9.70014 1.1368 7.52914 0.902802 6.21072 2.21364L7.3558 3.3663C7.93214 2.79322 8.9548 2.8528 9.50405 3.58622L10.8051 2.61014ZM5.14797 6.17972C5.1263 5.80489 5.29855 5.41272 5.65605 5.05739L4.5088 3.90472C3.92705 4.48322 3.4688 5.30222 3.52405 6.27072L5.14797 6.17972ZM21.0946 19.2447C20.7978 19.5416 20.4771 19.7084 20.1576 19.7376L20.3081 21.3551C21.1044 21.2803 21.7555 20.8795 22.2408 20.3974L21.0946 19.2447ZM11.9231 8.37347C12.9902 7.31289 13.0693 5.63697 12.1712 4.43664L10.8701 5.41055C11.3067 5.99447 11.2417 6.76039 10.7781 7.22297L11.9231 8.37347ZM22.2365 15.4791C23.1216 15.9601 23.2591 17.0932 22.6341 17.7151L23.7802 18.8666C25.2319 17.4226 24.7845 15.0143 23.0111 14.0512L22.2365 15.4791ZM18.5087 14.5593C18.9247 14.1455 19.5942 14.0436 20.1662 14.3535L20.9419 12.9267C19.7676 12.2876 18.3116 12.4641 17.3626 13.4066L18.5087 14.5593Z" fill="white" fill-opacity="0.7"/>
</svg>
