<svg width="246" height="247" viewBox="0 0 246 247" fill="none" xmlns="http://www.w3.org/2000/svg">
<path d="M123 20.5833C132.799 20.5833 142.27 21.983 151.239 24.5662C150.057 25.2935 148.809 25.8835 147.497 26.3364L133.762 30.8647C130.888 31.8942 128.358 33.7084 126.454 36.1032C109.706 35.4334 93.1209 39.6286 78.6878 48.1857C64.2547 56.7428 52.5862 69.2985 45.0818 84.3471C37.5774 99.3958 34.5556 116.298 36.3788 133.028C38.2019 149.758 44.7927 165.605 55.3606 178.668C65.9286 191.731 80.0251 201.456 95.9597 206.677C111.894 211.897 128.99 212.392 145.198 208.102C161.406 203.811 176.037 194.918 187.337 182.487C198.636 170.057 206.125 154.618 208.905 138.022C211.16 141.819 214.44 144.598 219.965 144.598C221.229 144.591 222.384 144.45 223.43 144.176C213.897 191.106 172.559 226.417 123 226.417C66.3892 226.417 20.5 180.341 20.5 123.5C20.5 66.6591 66.3892 20.5833 123 20.5833ZM156.005 92.3162C157.382 90.9629 159.214 90.1779 161.14 90.1167C163.066 90.0554 164.944 90.7225 166.403 91.9856C167.862 93.2488 168.796 95.0161 169.019 96.9375C169.242 98.859 168.739 100.795 167.608 102.361L166.87 103.225L115.62 154.684C114.317 155.989 112.591 156.782 110.755 156.918C108.919 157.054 107.096 156.524 105.616 155.425L104.755 154.684L79.13 128.955C77.7821 127.572 77.0003 125.732 76.9393 123.799C76.8783 121.865 77.5427 119.979 78.8007 118.514C80.0588 117.049 81.8189 116.112 83.7326 115.888C85.6462 115.664 87.5739 116.169 89.134 117.304L89.995 118.045L110.187 138.32L156.005 92.3162ZM220.211 82.3333C220.852 82.3295 221.478 82.5268 222.002 82.8977C222.525 83.2685 222.921 83.7945 223.132 84.402L225.695 92.2854C226.491 94.6775 227.831 96.8508 229.608 98.6334C231.385 100.416 233.551 101.759 235.934 102.556L243.776 105.109L243.93 105.15C244.379 105.313 244.786 105.578 245.117 105.924C245.449 106.27 245.697 106.688 245.841 107.146C245.986 107.604 246.024 108.089 245.952 108.564C245.88 109.039 245.7 109.49 245.426 109.884C245.057 110.409 244.533 110.804 243.93 111.016L236.088 113.569C233.705 114.366 231.539 115.709 229.762 117.492C227.985 119.274 226.645 121.448 225.848 123.84L223.296 131.723C223.079 132.326 222.682 132.848 222.16 133.216C221.637 133.585 221.014 133.783 220.375 133.783C219.736 133.783 219.113 133.585 218.59 133.216C218.067 132.848 217.671 132.326 217.454 131.723L214.891 123.84C214.101 121.441 212.765 119.26 210.99 117.47C209.214 115.68 207.047 114.33 204.662 113.527L196.82 110.975C196.371 110.812 195.964 110.547 195.633 110.201C195.301 109.855 195.053 109.437 194.909 108.979C194.764 108.521 194.726 108.036 194.798 107.561C194.87 107.086 195.05 106.635 195.324 106.241C195.693 105.716 196.217 105.321 196.82 105.109L204.662 102.556C207.017 101.739 209.152 100.387 210.901 98.6052C212.65 96.8238 213.967 94.6611 214.748 92.2854L217.3 84.3917C217.513 83.7878 217.907 83.2652 218.429 82.8964C218.95 82.5277 219.573 82.3309 220.211 82.3333ZM179.098 0C180.25 0.00363624 181.372 0.364533 182.312 1.03329C183.251 1.70204 183.962 2.64598 184.346 3.73588L188.948 17.8972C190.377 22.2044 192.786 26.1182 195.983 29.3283C199.18 32.5385 203.078 34.9567 207.368 36.3913L221.492 40.9917L221.779 41.0637C222.864 41.4575 223.802 42.1757 224.467 43.1217C225.133 44.0676 225.493 45.1957 225.5 46.3537C225.506 47.5135 225.151 48.6461 224.483 49.5929C223.816 50.5397 222.871 51.2531 221.779 51.6333L207.655 56.2337C203.362 57.6645 199.461 60.08 196.26 63.2884C193.059 66.4968 190.647 70.41 189.215 74.7175L184.633 88.8788L184.5 89.2288C184.055 90.2634 183.31 91.1394 182.362 91.7426C181.413 92.3458 180.306 92.6483 179.184 92.6105C178.063 92.5727 176.978 92.1965 176.072 91.5309C175.167 90.8652 174.482 89.9411 174.106 88.8788L169.535 74.7175C168.115 70.3959 165.709 66.467 162.509 63.2437C159.31 60.0204 155.405 57.5918 151.105 56.1513L136.981 51.551C135.896 51.1595 134.957 50.4436 134.29 49.4995C133.622 48.5555 133.26 47.4288 133.25 46.2713C133.244 45.1115 133.599 43.9789 134.267 43.0321C134.934 42.0853 135.879 41.3719 136.971 40.9917L151.095 36.3913C155.276 34.9411 159.072 32.5533 162.197 29.4094C165.321 26.2655 167.69 22.4481 169.125 18.2471L169.248 17.8972L173.83 3.73588C174.222 2.64682 174.937 1.70473 175.879 1.03669C176.821 0.368651 177.945 0.00681649 179.098 0Z" fill="url(#paint0_linear_648_879)"/>
<defs>
<linearGradient id="paint0_linear_648_879" x1="133.403" y1="20.2761" x2="133.403" y2="226.109" gradientUnits="userSpaceOnUse">
<stop stop-color="#24AC56"/>
<stop offset="1" stop-color="#0F4623" stop-opacity="0.6"/>
</linearGradient>
</defs>
</svg>
